<svg width="50" height="50" viewBox="0 0 50 50" fill="none" xmlns="http://www.w3.org/2000/svg">
<path d="M12.6454 0.224636C12.0986 0.517605 11.782 1.10354 11.782 1.7969C11.7916 3.06643 12.1082 4.22854 12.7413 5.2344L13.0195 5.69339L12.4919 6.28909C11.8971 6.95315 11.7532 7.19729 11.4846 7.98831C11.264 8.63284 11.2448 9.80472 11.4367 10.459C12.1082 12.7051 14.3338 14.0039 16.5114 13.4278C17.25 13.2324 17.7009 12.9883 18.3916 12.4024L18.9768 11.9141L19.5236 12.1875C19.8306 12.3438 20.3486 12.5684 20.6843 12.6953L21.2791 12.9102V14.0039C21.2791 15.7324 21.634 16.7578 22.5454 17.6856C23.4567 18.6133 24.8861 19.0918 26.1236 18.877C27.0061 18.7207 27.8695 18.2813 28.4547 17.6856C29.366 16.7578 29.721 15.7324 29.721 14.0039V12.9102L30.3253 12.6953C30.6515 12.5684 31.1695 12.3438 31.4765 12.1875L32.0233 11.9141L32.6085 12.4024C33.2992 12.9883 33.75 13.2324 34.4887 13.4278C36.6663 14.0039 38.8919 12.7051 39.5634 10.459C39.7553 9.80472 39.7361 8.63284 39.5154 7.98831C39.2468 7.19729 39.1029 6.95315 38.5082 6.28909L37.9806 5.69339L38.2588 5.2344C38.8919 4.22854 39.2085 3.06643 39.2181 1.7969C39.2181 1.10354 38.9015 0.517605 38.3547 0.224636L37.9422 2.67029e-05H25.5H13.0579L12.6454 0.224636ZM35.6686 3.28128C35.6686 3.31057 35.3904 3.76956 35.0451 4.31643C34.0282 5.92776 34.0666 6.27932 35.4192 7.7051C35.9085 8.22268 36.3593 8.74026 36.4265 8.85745C36.791 9.5801 36.062 10.4785 35.2561 10.293C35.0643 10.2539 34.6422 9.91214 34.0282 9.30667C32.8003 8.09573 32.3782 7.95901 31.4381 8.49612C30.3541 9.12112 28.9727 9.75589 28.3012 9.94143C27.3515 10.2149 27.0253 10.4199 26.7759 10.9375C26.5745 11.3379 26.5553 11.5039 26.5553 13.0664C26.5553 14.9903 26.4785 15.3028 25.9317 15.5664C25.5384 15.7617 25.4617 15.7617 25.0683 15.5664C24.5215 15.3028 24.4448 14.9903 24.4448 13.0664C24.4448 11.5039 24.4256 11.3379 24.2338 10.9375C23.9747 10.4297 23.6486 10.2149 22.6989 9.94143C21.8739 9.70706 20.6556 9.16995 19.984 8.7305C19.3509 8.32034 18.7945 8.16409 18.3532 8.24221C18.0654 8.30081 17.7776 8.52542 17.0102 9.27737C16.3771 9.89261 15.9262 10.2539 15.7343 10.293C14.9381 10.4785 14.209 9.57034 14.5736 8.85745C14.6407 8.74026 15.0916 8.22268 15.5808 7.7051C16.9335 6.27932 16.9718 5.92776 15.955 4.31643C15.6096 3.76956 15.3314 3.31057 15.3314 3.28128C15.3314 3.24221 19.9073 3.22268 25.5 3.22268C31.0928 3.22268 35.6686 3.24221 35.6686 3.28128Z" fill="#FFA5BA"/>
<path d="M9.75785 20.6348C9.2686 20.9668 9 21.4355 9 21.9531C9 22.3047 13.8733 48.3984 14.0459 48.9453C14.1323 49.248 14.4872 49.6094 14.8613 49.8047C15.2163 50 15.4657 50 25.5 50C35.5343 50 35.7837 50 36.1387 49.8047C36.5128 49.6094 36.8677 49.248 36.9541 48.9453C37.1267 48.3984 42 22.3047 42 21.9531C42 21.4355 41.7314 20.9668 41.2421 20.6348L40.916 20.4102H25.5H10.084L9.75785 20.6348ZM38.2108 24.1895C38.1148 24.9707 37.5584 26.6699 37.1459 27.4414C35.141 31.1523 31.3421 33.4082 26.632 33.6719C23.073 33.877 20.0608 33.1543 17.5378 31.4941C16.0797 30.5371 14.8613 29.2285 13.998 27.6855C13.5183 26.8359 12.8852 25.0098 12.7892 24.1895L12.7221 23.6328H25.5H38.2779L38.2108 24.1895ZM15.859 34.248C19.9744 37.0215 26.1235 37.7539 31.3038 36.0742C33.0305 35.5176 34.7956 34.5801 36.273 33.4375C36.7047 33.0957 36.7334 33.0957 36.6855 33.3105C36.6567 33.4375 36.0907 36.4258 35.4288 39.9414C34.7669 43.457 34.2105 46.4355 34.1817 46.5527L34.1337 46.7773H25.5H16.8663L16.8183 46.5527C16.7895 46.4355 16.2331 43.457 15.5712 39.9414C14.9093 36.4258 14.3433 33.4375 14.3145 33.3105C14.2666 33.0957 14.2953 33.0957 14.727 33.4375C14.9765 33.6328 15.4945 33.9941 15.859 34.248Z" fill="#FFA5BA"/>
</svg>
